<?xml version="1.0" encoding="utf-8"?>
<!-- Generator: Adobe Illustrator 18.0.0, SVG Export Plug-In . SVG Version: 6.00 Build 0)  -->
<!DOCTYPE svg PUBLIC "-//W3C//DTD SVG 1.1//EN" "http://www.w3.org/Graphics/SVG/1.1/DTD/svg11.dtd">
<svg version="1.1" id="Layer_1" xmlns="http://www.w3.org/2000/svg" xmlns:xlink="http://www.w3.org/1999/xlink" x="0px" y="0px"
	 viewBox="0 0 1000 1000" enable-background="new 0 0 1000 1000" xml:space="preserve">
<g>
	<linearGradient id="SVGID_1_" gradientUnits="userSpaceOnUse" x1="266.2002" y1="766.5215" x2="600.1319" y2="313.0775">
		<stop  offset="0" style="stop-color:#662D91"/>
		<stop  offset="1" style="stop-color:#93278F"/>
	</linearGradient>
	<path fill="url(#SVGID_1_)" d="M506,875.9c-49.1,0-89-39.9-89-89c0-43,30.7-79,71.3-87.2l0.1-73.1c-53.9-8.2-95.9-52.6-99.5-108.6
		h-90.2c-9.4,40-45.2,69.7-87.8,69.7c-49.8,0-90.3-40.4-90.3-90.1c0-49.8,40.5-90.2,90.3-90.2c44.8,0,82.1,32.7,89.1,75.7h92
		c11.4-47,50.9-82.8,99.5-88.9l18.5-91.5c-38.3-11.1-66.4-46.5-66.4-88.4c0-50.8,41.3-92,92.1-92s92.1,41.3,92.1,92.1
		c0,47.4-36,86.6-82.1,91.5l-18.1,89.4c26.4,4.8,49.7,18.5,66.8,37.9l113.3-89.4c-5.6-11.7-8.8-24.8-8.8-38.6c0-49.1,39.9-89,89-89
		c49.1,0,89,39.9,89,89s-39.9,89-89,89c-22.5,0-43.1-8.4-58.7-22.2l-115.5,91.1c6.5,14.6,10.2,30.8,10.2,47.8
		c0,58.8-43.4,107.6-99.8,116.2l-0.1,72.8c40.6,8.2,71.3,44.2,71.3,87.2C595,836,555.1,875.9,506,875.9z M506,733.4
		c-29.5,0-53.6,24-53.6,53.6s24,53.6,53.6,53.6c29.5,0,53.6-24,53.6-53.6S535.6,733.4,506,733.4z M506.2,428.6
		c-45.3,0-82.1,36.8-82.1,82.1s36.8,82.1,82.1,82.1c45.3,0,82.1-36.8,82.1-82.1S551.5,428.6,506.2,428.6z M211,442.9
		c-30.2,0-54.8,24.6-54.8,54.8s24.6,54.8,54.8,54.8s54.8-24.6,54.8-54.8S241.2,442.9,211,442.9z M787.7,251.5
		c-29.5,0-53.6,24-53.6,53.6s24,53.6,53.6,53.6c29.5,0,53.6-24,53.6-53.6S817.3,251.5,787.7,251.5z M535.7,157.6
		c-31.2,0-56.6,25.4-56.6,56.6s25.4,56.6,56.6,56.6c31.2,0,56.6-25.4,56.6-56.6S566.9,157.6,535.7,157.6z"/>
</g>
</svg>
